<?xml version="1.0" standalone="no"?>
<!DOCTYPE svg PUBLIC "-//W3C//DTD SVG 20010904//EN"
 "http://www.w3.org/TR/2001/REC-SVG-20010904/DTD/svg10.dtd">
<svg version="1.0" xmlns="http://www.w3.org/2000/svg"
 width="260.000000pt" height="260.000000pt" viewBox="0 0 260.000000 260.000000"
 preserveAspectRatio="xMidYMid meet">
<metadata>
Created by potrace 1.11, written by Peter Selinger 2001-2013
</metadata>
<g transform="translate(0.000000,260.000000) scale(0.100000,-0.100000)"
fill="#000000" stroke="none">
<path d="M1420 1812 l-115 -68 -3 -143 c-1 -78 1 -141 6 -139 4 1 60 34 125
71 l117 69 0 139 c0 76 -3 139 -7 139 -5 0 -60 -31 -123 -68z"/>
<path d="M1050 1449 l1 -144 105 -60 c58 -33 109 -61 115 -63 5 -2 9 46 9 118
0 109 -2 121 -15 110 -9 -7 -17 -11 -19 -9 -2 2 7 12 20 22 l25 19 -2 -135 c0
-75 2 -141 7 -148 4 -7 3 -14 -2 -16 -5 -2 -61 -34 -124 -71 l-115 -67 -3
-144 c-2 -91 1 -142 7 -139 6 1 118 66 250 143 l240 140 1 146 0 147 -227 132
c-126 73 -238 140 -250 148 l-23 14 0 -143z m180 -54 c0 -2 -10 -9 -22 -15
-22 -11 -22 -10 -4 4 21 17 26 19 26 11z m-90 -56 c-25 -17 -76 -42 -68 -34
13 14 62 44 73 44 6 0 3 -4 -5 -10z"/>
</g>
</svg>
